<?xml version="1.0" encoding="UTF-8" standalone="no"?>
<svg
   xmlns:dc="http://purl.org/dc/elements/1.1/"
   xmlns:cc="http://creativecommons.org/ns#"
   xmlns:rdf="http://www.w3.org/1999/02/22-rdf-syntax-ns#"
   xmlns:svg="http://www.w3.org/2000/svg"
   xmlns="http://www.w3.org/2000/svg"
   version="1.1"
   id="svg3508"
   viewBox="0 0 638.38287 126.77804"
   height="35.779579mm"
   width="180.16583mm">
  <defs
     id="defs3510" />
  <metadata
     id="metadata3513">
    <rdf:RDF>
      <cc:Work
         rdf:about="">
        <dc:format>image/svg+xml</dc:format>
        <dc:type
           rdf:resource="http://purl.org/dc/dcmitype/StillImage" />
        <dc:title></dc:title>
      </cc:Work>
    </rdf:RDF>
  </metadata>
  <g
     transform="translate(-55.808563,-468.97319)"
     id="layer1">
    <path
       d="m 171.64072,569.53393 -57.91608,0 -57.916077,0 28.958038,-50.15679 28.958039,-50.1568 28.95804,50.1568 z"
       id="path3769"
       style="color:#000000;display:inline;overflow:visible;visibility:visible;fill:#76f09b;fill-opacity:1;fill-rule:nonzero;stroke:none;stroke-width:1.99992609;marker:none;enable-background:accumulate" />
    <path
       id="rect3782"
       d="m 594.19143,470.39903 0,100 100,0 0,-100 -100,0 z"
       style="color:#000000;display:inline;overflow:visible;visibility:visible;fill:#f55f5f;fill-opacity:1;fill-rule:nonzero;stroke:none;stroke-width:2;marker:none;enable-background:accumulate" />
    <circle
       id="path5373"
       style="color:#000000;display:inline;overflow:visible;visibility:visible;fill:#f5b862;fill-opacity:1;fill-rule:nonzero;stroke:none;stroke-width:1.81900001;marker:none;enable-background:accumulate"
       cx="530.44342"
       cy="556.77173"
       r="12.947398" />
    <g
       id="flowRoot2993"
       style="font-style:normal;font-weight:normal;font-size:144px;line-height:125%;font-family:Sans;letter-spacing:0px;word-spacing:0px;display:inline;fill:#4b5562;fill-opacity:1;stroke:none"
       transform="matrix(0.93065862,0,0,0.93065862,139.54016,196.69158)">
      <path
         id="path3444"
         style="font-weight:600;font-size:144px;font-family:Magra;-inkscape-font-specification:'Magra Semi-Bold';fill:#4b5562;fill-opacity:1;stroke:none"
         d="m 11.369922,331.04859 q 7.488,-9.504 20.16,-9.504 12.672,0 18,9.36 7.632,-9.36 20.736,-9.36 22.176,0 22.176,27.504 l 0,50.976 -22.176,0 0,-51.984 q 0,-9.36 -7.632,-9.36 -5.472,0 -8.784,4.176 l 0,57.168 -22.032,0 0,-51.984 q 0,-9.36 -7.776,-9.36 -5.184,0 -8.784,4.176 l 0,57.168 -22.0320001,0 0,-54.144 -1.584,-21.456 17.136,-2.16 2.0160001,8.784 0.576,0 z" />
      <path
         id="path3446"
         style="font-weight:600;font-size:144px;font-family:Magra;-inkscape-font-specification:'Magra Semi-Bold';fill:#4b5562;fill-opacity:1;stroke:none"
         d="m 139.12717,347.60859 q 0,-4.752 -2.016,-6.912 -2.016,-2.304 -7.776,-2.304 -5.76,0 -19.008,4.176 l -6.192,-13.536 q 4.896,-2.736 13.536,-5.04 8.784,-2.448 17.136,-2.448 8.496,0 14.112,2.016 5.76,2.016 8.208,6.048 2.592,3.888 3.312,7.776 0.864,3.888 0.864,9.792 l 0,27.072 q 0,5.328 1.008,8.64 1.152,3.312 4.752,7.2 l -12.528,11.664 q -3.312,-1.584 -6.48,-4.752 -3.024,-3.168 -4.464,-5.904 l -0.576,0 q -8.352,10.656 -21.168,10.656 -20.736,0 -20.736,-21.456 0,-11.376 6.48,-16.992 6.624,-5.616 19.008,-7.776 l 12.528,-2.16 0,-5.76 z m -17.136,30.384 q 0,7.056 7.488,7.056 5.76,0 9.792,-4.032 l 0,-13.536 q -9.216,1.296 -13.248,3.6 -4.032,2.16 -4.032,6.912 z" />
      <path
         id="path3448"
         style="font-weight:600;font-size:144px;font-family:Magra;-inkscape-font-specification:'Magra Semi-Bold';fill:#4b5562;fill-opacity:1;stroke:none"
         d="m 200.82667,322.69659 19.44,0 -2.592,15.984 -16.848,0 0,32.976 q 0,7.344 2.016,10.224 2.016,2.88 6.912,2.88 2.016,0 8.208,-1.44 l 3.888,12.816 q -2.736,2.16 -8.928,3.888 -6.048,1.728 -11.088,1.728 -14.256,0 -18.72,-7.2 -4.32,-7.344 -4.32,-23.904 l 0,-31.968 -11.088,0 2.016,-14.4 9.504,-1.296 0.864,-14.4 20.736,-6.192 0,20.304 z" />
      <path
         id="path3450"
         style="font-weight:600;font-size:144px;font-family:Magra;-inkscape-font-specification:'Magra Semi-Bold';fill:#4b5562;fill-opacity:1;stroke:none"
         d="m 255.10792,322.69659 19.44,0 -2.592,15.984 -16.848,0 0,32.976 q 0,7.344 2.016,10.224 2.016,2.88 6.912,2.88 2.016,0 8.208,-1.44 l 3.888,12.816 q -2.736,2.16 -8.928,3.888 -6.048,1.728 -11.088,1.728 -14.256,0 -18.72,-7.2 -4.32,-7.344 -4.32,-23.904 l 0,-31.968 -11.088,0 2.016,-14.4 9.504,-1.296 0.864,-14.4 20.736,-6.192 0,20.304 z" />
      <path
         id="path3452"
         style="font-weight:600;font-size:144px;font-family:Magra;-inkscape-font-specification:'Magra Semi-Bold';fill:#4b5562;fill-opacity:1;stroke:none"
         d="m 315.72517,321.54459 q 14.4,0 21.168,7.92 5.616,6.48 6.912,21.6 0.432,6.048 0.432,15.12 l -10.224,1.44 -29.664,0 q 0,8.496 3.168,12.816 3.168,4.176 11.232,4.176 8.208,0 19.728,-4.176 l 4.464,13.536 q -13.68,7.776 -28.512,7.776 -33.552,0 -33.552,-39.744 0,-18.72 8.64,-29.52 8.784,-10.944 26.208,-10.944 z m 4.896,20.448 q -1.44,-3.312 -6.48,-3.312 -5.04,0 -7.2,3.744 -2.16,3.6 -2.448,10.944 l 17.568,0 q 0,-8.208 -1.44,-11.376 z" />
      <path
         id="path3454"
         style="font-weight:600;font-size:144px;font-family:Magra;-inkscape-font-specification:'Magra Semi-Bold';fill:#4b5562;fill-opacity:1;stroke:none"
         d="m 373.20142,338.10459 q 2.16,-7.632 7.2,-12.096 5.04,-4.464 11.664,-4.464 6.768,0 12.24,2.736 l -5.04,17.424 q -4.464,-1.296 -7.632,-1.296 -5.616,0 -10.224,4.176 -4.464,4.176 -4.464,12.24 l 0,43.2 -22.032,0 0,-54.288 -1.584,-21.312 16.704,-2.16 2.592,15.84 0.576,0 z" />
    </g>
    <g
       id="flowRoot2993-0"
       style="font-style:normal;font-weight:normal;font-size:144px;line-height:125%;font-family:Sans;letter-spacing:0px;word-spacing:0px;display:inline;fill:#4b5562;fill-opacity:1;stroke:none"
       transform="matrix(0.93065862,0,0,0.93065862,570.52826,196.52791)">
      <path
         id="path3457"
         style="font-weight:600;font-family:Magra;-inkscape-font-specification:'Magra Semi-Bold';fill:#4b5562;fill-opacity:1;stroke:none"
         d="m 15.257922,398.72859 q 0,11.376 -3.888,16.992 -3.7440001,5.616 -15.9840001,13.248 l -12.0959999,-12.672 q 6.9119999,-5.184 8.3519999,-8.928 1.584,-3.744 1.584,-14.4 l 0,-68.4 22.0320001,-2.304 0,76.464 z m -11.8080001,-80.64 q -11.952,0 -11.952,-13.392 0,-5.184 3.168,-8.496 3.168,-3.456 10.368,-3.456 11.8080001,0 11.8080001,13.536 0,5.184 -3.168,8.496 -3.168,3.312 -10.2240001,3.312 z" />
      <path
         id="path3459"
         style="font-weight:600;font-family:Magra;-inkscape-font-specification:'Magra Semi-Bold';fill:#4b5562;fill-opacity:1;stroke:none"
         d="m 26.627172,345.01659 q 0,-10.512 8.352,-16.992 8.352,-6.48 21.024,-6.48 12.672,0 19.728,5.904 7.056,5.76 8.208,16.272 l -19.296,3.744 q -1.008,-9.792 -9.648,-9.792 -3.168,0 -5.184,1.872 -2.016,1.872 -2.016,4.032 0,2.16 0.432,3.312 0.576,1.152 1.584,2.16 1.152,1.008 2.16,1.872 1.152,0.72 3.024,1.584 2.016,0.864 3.456,1.44 2.016,1.152 9.216,4.176 7.2,2.88 12.096,7.488 4.896,4.608 4.896,13.392 0,8.784 -8.064,15.84 -7.92,6.912 -22.464,6.912 -14.544,0 -29.088,-8.496 l 7.92,-14.256 q 14.4,6.192 21.168,6.192 3.312,0 5.472,-1.44 2.304,-1.44 2.304,-4.32 0,-3.024 -3.168,-4.896 -3.312,-2.016 -5.04,-2.736 -13.68,-5.328 -20.736,-11.088 -6.336,-5.184 -6.336,-15.696 z" />
    </g>
  </g>
</svg>
